<svg width="285" height="324" viewBox="0 0 285 324" fill="none" xmlns="http://www.w3.org/2000/svg">
<path d="M123.533 322.147C113.919 320.515 103.348 316.758 94.8451 311.953C67.6998 296.609 53.2775 275.966 43.6002 238.604L40.3742 226.149L35.6448 224.943C18.8818 220.666 7.16345 208.183 3.48181 190.681C0.76236 177.753 5.8874 161.66 14.7514 155.294C17.7769 153.122 18.9035 151.699 18.4572 150.616C16.3595 145.523 15.8552 141.039 16.3703 132.059C16.6858 126.559 17.2464 120.795 17.6162 119.25L18.2885 116.441L13.4649 119.5C7.79978 123.092 2.63931 123.561 1.06795 120.624C-2.78506 113.425 4.2168 93.4228 15.1806 80.3087C18.709 76.0884 18.9186 75.5587 17.0602 75.5587C15.9098 75.5587 13.424 74.9134 11.5362 74.1246C5.24158 71.4946 6.16078 65.5876 14.246 56.711C19.0509 51.4359 31.1657 41.7294 37.4942 38.0843C42.3135 35.3085 42.3851 35.2006 39.9942 34.3184C31.9614 31.3542 28.5271 29.0095 28.2131 26.275C27.382 19.0375 47.3165 8.56135 70.8572 3.8643C84.0517 1.23161 108.323 1.50025 122.307 4.43375C135.822 7.26902 151.857 12.4317 160.151 16.6183L166.518 19.8326L160.219 13.0981C155.322 7.86328 153.987 5.78774 154.226 3.77727C154.95 -2.32721 164.967 -1.00077 182.533 7.52567C193.244 12.725 195.448 14.2671 203.056 21.8846C208.933 27.7701 212.58 32.4309 214.806 36.9031C216.581 40.4696 218.033 43.8495 218.033 44.4142C218.033 44.9788 218.553 45.7622 219.189 46.1551C220.035 46.6779 220.191 45.3837 219.773 41.3299C218.941 33.2668 221.836 31.4199 228.679 35.649C236.126 40.2516 241.382 52.5815 241.961 66.8087C242.011 68.0337 242.858 68.559 244.783 68.5595C249.112 68.5605 259.22 73.8696 262.923 78.0869C269.453 85.5237 273.055 97.1361 269.833 100.359C268.006 102.186 263.929 101.807 256.884 99.1549C250.901 96.9026 241.033 94.7949 241.033 95.7691C241.033 96.0097 242.588 99.7954 244.489 104.182C248.233 112.822 253.009 130.162 253.024 135.169C253.029 136.88 253.312 140.319 253.654 142.811C254.255 147.199 254.403 147.362 258.347 147.993C263.987 148.895 271.387 153.134 275.936 158.07C288.048 171.209 287.108 194.981 273.814 211.733C269.89 216.677 260.268 223.16 254.61 224.671C248.068 226.418 246.033 227.424 246.033 228.91C246.033 232.708 237.252 257.203 232.87 265.629C227.002 276.912 216.878 290.701 209.671 297.226C197.822 307.954 181.027 316.867 165.533 320.649C154.959 323.23 134.261 323.968 123.533 322.147ZM155.533 314.083C160.483 313.276 167.008 311.884 170.033 310.99C178.248 308.562 190.724 301.976 197.848 296.308C205.44 290.267 218.619 275.556 221.901 269.458C227.923 258.272 230.995 251.522 233.007 245.059C237.028 232.136 237.698 228.827 238.98 215.559C242.262 181.591 242.729 179.361 248.339 170.824L252.437 164.59L254.724 166.738C255.982 167.92 258.204 169.014 259.662 169.17C264.014 169.633 265.033 170.366 265.033 173.027C265.033 175.402 264.72 175.559 259.982 175.559C255.204 175.559 254.855 175.739 253.54 178.887C252.775 180.718 251.251 188.03 250.153 195.137C247.169 214.45 246.861 217.337 247.735 217.847C248.174 218.103 250.72 217.664 253.394 216.873C257.153 215.76 259.881 213.805 265.433 208.246C273.913 199.756 276.533 193.575 276.533 182.059C276.533 169.471 269.416 159.213 258.72 156.384C254.382 155.236 253.544 155.305 250.221 157.086C248.152 158.195 245.658 160.704 244.534 162.807C242.763 166.123 242.098 166.554 238.743 166.556C236.659 166.557 233.127 165.627 230.896 164.489C228.665 163.351 226.63 162.628 226.375 162.883C226.121 163.138 225.481 166.431 224.953 170.202C221.628 193.981 214.907 204.247 200.714 207.222C186.38 210.226 162.88 207.931 156.222 202.877C148.782 197.23 144.461 188.688 140.447 171.695C138.342 162.786 135.426 160.215 128.178 160.88C123.482 161.31 122.321 162.401 121.595 167.059C118.457 187.195 117.823 189.908 114.597 196.987C109.859 207.385 108.997 210.846 110.128 214.942C111.456 219.749 118.212 222.576 128.218 222.511C136.739 222.455 141.853 220.421 143.826 216.305C144.683 214.516 145.925 213.559 147.387 213.559C152.902 213.559 153.69 219.594 148.783 224.251C142.859 229.872 139.542 230.981 128.533 231.022C119.514 231.055 117.961 230.778 112.71 228.2C108.926 226.342 105.827 223.89 103.861 221.2C101.094 217.413 100.875 216.539 101.304 210.989L101.774 204.919L96.6532 206.337C93.8369 207.117 85.6152 207.992 78.3827 208.281C63.9169 208.859 57.3317 207.859 50.2828 204.016L46.0328 201.7V207.048C46.0328 217.181 52.0357 243.266 57.5108 256.925C66.7115 279.879 84.23 299.126 103.533 307.488C110.457 310.488 116.145 312.46 119.583 313.052C136.137 315.905 143.129 316.106 155.533 314.083ZM141.233 305.359C139.623 303.749 139.721 302.449 141.661 299.679C143.641 296.852 144.994 298.315 145.017 303.309C145.033 306.698 143.437 307.563 141.233 305.359ZM159.283 305.85C158.473 305.553 158.033 303.281 158.033 299.392C158.033 291.824 160.126 291.852 161.432 299.438C162.343 304.731 161.674 306.727 159.283 305.85ZM123.699 304.892C122.349 303.542 123.09 298.712 124.999 296.42L126.966 294.059L127 299.809C127.024 303.95 126.66 305.559 125.699 305.559C124.966 305.559 124.066 305.259 123.699 304.892ZM108.431 300.154C107.338 297.305 108.487 292.084 110.283 291.744C111.763 291.463 112.033 292.194 112.033 296.485C112.033 300.375 111.675 301.559 110.501 301.559C109.659 301.559 108.727 300.927 108.431 300.154ZM174.033 296.681C174.033 292.638 176.953 288.372 177.11 292.186C177.152 293.216 177.265 295.521 177.36 297.309C177.493 299.803 177.126 300.559 175.783 300.559C174.417 300.559 174.033 299.707 174.033 296.681ZM92.0327 291.059C90.4088 289.102 91.5984 282.559 93.5781 282.559C94.6326 282.559 95.0328 283.78 95.0328 287C95.0328 291.865 93.9347 293.35 92.0327 291.059ZM190.165 286.809C190.127 281.379 190.773 278.559 192.055 278.559C193.367 278.559 194.328 284.938 193.55 288.481C192.46 293.445 190.205 292.331 190.165 286.809ZM76.6994 278.892C75.4371 277.63 76.0354 271.801 77.5569 270.539C78.3952 269.843 79.2284 269.45 79.4085 269.666C80.0528 270.439 82.0328 276.883 82.0328 278.208C82.0328 279.583 77.9184 280.111 76.6994 278.892ZM124.033 277.266C121.236 276.516 119.533 275.491 119.533 274.559C119.533 272.318 147.868 271.965 148.724 274.196C149.04 275.019 148.88 276.111 148.37 276.622C146.852 278.139 129.042 278.611 124.033 277.266ZM204.325 273.415C204.905 269.094 206.971 266.697 208.209 268.908C208.596 269.601 208.75 271.043 208.549 272.113C208.349 273.183 208.151 274.846 208.109 275.809C208.061 276.904 207.235 277.559 205.901 277.559C203.979 277.559 203.824 277.151 204.325 273.415ZM66.1546 263.281C64.8754 262.001 64.6235 254.93 65.8305 254.184C67.4016 253.213 68.7992 255.127 69.4759 259.177C70.203 263.528 68.5029 265.629 66.1546 263.281ZM125 260.193C124.733 259.926 122.718 259.483 120.524 259.209C115.965 258.64 112.418 257.775 109.533 256.527C108.433 256.051 106.633 255.522 105.533 255.35C103.439 255.024 102.174 251 103.698 249.514C104.157 249.066 106.783 249.286 109.533 250.002C112.283 250.718 116.851 251.583 119.685 251.925C122.518 252.267 125.493 252.798 126.295 253.106C127.097 253.414 132.946 253.214 139.293 252.663C148.162 251.893 152.723 250.932 159.002 248.51C163.495 246.777 167.407 244.747 167.695 243.997C167.982 243.248 169.109 242.352 170.197 242.006C171.401 241.625 171.959 240.81 171.622 239.93C170.833 237.874 174.777 236.667 178.527 237.818C180.937 238.558 181.969 239.729 183.181 243.097C184.585 247.002 184.586 247.577 183.191 248.972C181.797 250.366 181.487 250.275 180.024 248.045L178.402 245.573L175.331 247.816C173.642 249.049 169.621 251.409 166.396 253.059C163.171 254.709 160.308 256.337 160.033 256.677C158.725 258.293 146.523 260.258 136.56 260.457C130.469 260.579 125.267 260.46 125 260.193ZM217.23 254.387C217.407 251.373 218.054 249.044 218.783 248.804C220.167 248.348 220.416 251.391 219.408 256.434C218.405 261.447 216.9 260.033 217.23 254.387ZM87.7502 252.943C86.9466 252.139 88.0277 246.424 89.2868 244.82C90.7132 243.003 92.0328 244.273 92.0328 247.463C92.0328 250.211 88.9557 254.148 87.7502 252.943ZM57.1053 241.924C55.2878 239.613 53.9785 232.171 55.6908 233.883C56.0527 234.245 56.9213 234.066 57.621 233.486C59.3375 232.061 60.6494 234.781 60.912 240.309C61.1442 245.2 60.0479 245.665 57.1053 241.924ZM224.987 236.889C225.873 229.311 228.979 230.791 229.019 238.809C229.03 241.014 228.578 241.559 226.737 241.559C224.592 241.559 224.477 241.251 224.987 236.889ZM49.1306 221.41C48.5268 219.677 48.0328 216.96 48.0328 215.371C48.0328 212.575 48.0942 212.539 49.9087 214.27C50.9405 215.254 52.0655 217.071 52.4087 218.309C52.7519 219.546 53.2881 221.459 53.6002 222.559C54.03 224.074 53.69 224.559 52.198 224.559C50.8879 224.559 49.8608 223.504 49.1306 221.41ZM230.882 217.81C231.447 208.486 235.033 206.039 235.033 214.977C235.033 221.513 234.352 223.558 232.176 223.56C230.802 223.561 230.59 222.62 230.882 217.81ZM39.0328 217.195C39.0328 216.995 38.6153 214.631 38.1052 211.941C37.595 209.25 36.9186 203.001 36.6022 198.054C35.388 179.074 34.0235 175.609 27.7505 175.574C24.626 175.557 22.49 172.018 24.2704 169.809C25.4738 168.315 28.0328 168.145 28.0328 169.559C28.0328 170.109 28.5309 170.559 29.1398 170.559C29.7812 170.559 29.9665 169.823 29.5805 168.809C29.0463 167.406 29.1639 167.306 30.1735 168.309C30.8661 168.996 32.6928 169.559 34.2328 169.559C36.3775 169.559 37.0328 169.085 37.0328 167.534C37.0328 166.348 36.0909 165.151 34.7601 164.645C33.5102 164.17 31.0832 162.345 29.3667 160.589C26.3557 157.509 26.1455 157.45 23.3894 158.912C14.9986 163.364 10.6991 171.375 10.7574 182.45C10.8178 193.925 15.7407 204.448 24.355 211.516C27.7144 214.273 39.0328 218.652 39.0328 217.195ZM157.098 173.897C157.938 169.786 158.667 168.799 162.218 166.963C166.424 164.788 182.763 160.043 193.033 158.014C204.85 155.68 204.932 155.648 202.603 154.341C200.446 153.131 169.775 154.011 162.062 155.505C155.376 156.8 153.033 160.051 153.033 168.033C153.033 171.532 153.313 175.126 153.656 176.019C154.584 178.438 156.397 177.32 157.098 173.897ZM53.0328 172.67C53.0328 171.08 53.8203 168.819 54.7828 167.644C56.9879 164.952 68.2314 161.133 81.9431 158.419C87.7674 157.266 92.9603 155.926 93.4828 155.441C94.6941 154.316 79.6671 154.35 66.7847 155.501C51.721 156.847 47.1662 160.623 48.5415 170.622C49.085 174.574 49.6009 175.559 51.1266 175.559C52.5617 175.559 53.0328 174.845 53.0328 172.67ZM139.552 151.528C140.189 150.498 149.598 145.45 150.541 145.633C150.828 145.689 154.188 145.207 158.009 144.563C169.215 142.673 169.67 142.644 189.631 142.556C206.865 142.48 218.929 143.43 223.628 145.234C225.082 145.792 225.224 145.46 224.596 142.973C224.191 141.37 223.263 136.676 222.534 132.541C218.907 111.98 215.625 103.948 207.598 95.9908C199.275 87.7408 192.13 84.3494 181.813 83.7521C166.044 82.8393 155.274 87.2724 141.72 100.255C136.857 104.913 123.429 116.267 115.517 122.411C111.599 125.454 104.657 128.649 100.821 129.174C96.9883 129.7 95.93 129.456 94.1011 127.627C92.2679 125.794 91.9628 124.457 92.1385 119.03C92.2529 115.495 93.1759 110.248 94.1897 107.369C95.2034 104.491 96.0328 101.331 96.0328 100.347C96.0328 99.3635 96.4828 98.5587 97.0328 98.5587C97.5828 98.5587 98.0328 97.9388 98.0328 97.1812C98.0328 96.4235 98.7078 95.2434 99.5328 94.5587C100.358 93.874 101.026 92.5814 101.017 91.6863C101.004 90.2702 100.876 90.2536 100.033 91.5587C99.4996 92.3837 99.0565 92.7254 99.0481 92.318C99.0401 91.9106 96.6703 93.0043 93.7828 94.7484C86.997 98.8473 73.6119 111.838 65.4292 122.267C58.4167 131.205 55.7156 133.559 52.4708 133.559C50.383 133.559 48.0328 130.092 48.0328 127.012C48.0328 126.213 47.648 125.559 47.1778 125.559C46.7076 125.559 46.02 128.596 45.6499 132.309C45.2798 136.021 44.7036 140.589 44.3694 142.458L43.7619 145.858L48.1473 145.153C65.4996 142.364 78.8151 141.931 96.9389 143.564C109.003 144.651 115.827 146.646 118.987 150.01C121.011 152.164 122.092 152.403 130.079 152.466C135.021 152.504 139.204 152.09 139.552 151.528ZM245.158 149.959C245.502 149.759 245.783 148.436 245.783 147.02V144.445L243.622 146.475C241.545 148.426 241.461 148.431 241.461 146.605C241.461 145.56 241.835 144.936 242.291 145.218C242.747 145.5 243.749 145.209 244.517 144.572C245.814 143.495 245.769 142.445 244.258 138.559C243.246 135.957 243.269 133.587 244.3 134.224C244.846 134.561 245.065 134.212 244.787 133.448C244.51 132.684 243.757 132.178 243.115 132.323C242.27 132.514 242.229 132.06 242.968 130.68C243.755 129.21 243.52 128.176 241.942 126.171C240.189 123.942 240.144 123.664 241.628 124.234C242.761 124.668 243.124 124.516 242.677 123.792C242.301 123.184 241.133 122.751 240.082 122.83C239.031 122.909 238.335 123.239 238.536 123.564C238.737 123.889 238.499 124.804 238.008 125.598C237.248 126.829 236.925 126.837 235.824 125.654C234.76 124.51 234.782 124.408 235.953 125.076C236.995 125.671 237.209 125.461 236.759 124.287C236.421 123.408 236.682 122.49 237.339 122.248C238.251 121.913 238.237 121.496 237.283 120.484C235.454 118.545 235.757 116.662 237.873 116.822C239.169 116.919 239.639 117.64 239.461 119.26C239.216 121.494 240.038 122.22 241.339 120.919C241.691 120.568 241.66 119.78 241.271 119.169C240.565 118.061 240.393 117.497 240.158 115.5C240.089 114.917 239.47 114.758 238.783 115.146C237.805 115.699 237.794 115.569 238.736 114.552C240.093 113.087 238.894 109.997 236.119 107.806C234.737 106.715 234.79 106.644 236.533 107.256C238.24 107.855 238.131 107.479 235.783 104.681C234.27 102.88 233.033 100.835 233.033 100.137C233.033 99.4395 232.133 98.0543 231.033 97.0588C228.676 94.9261 228.318 95.7015 230.604 97.9874C231.786 99.1696 231.848 99.5667 230.854 99.5906C230.025 99.6106 230.256 100.169 231.474 101.091C232.542 101.898 233.018 102.559 232.533 102.559C232.048 102.559 232.524 103.259 233.592 104.114C235.456 105.607 235.443 105.626 233.283 104.579C232.045 103.979 231.033 103.028 231.033 102.465C231.033 101.901 230.546 101.741 229.951 102.109C229.282 102.522 228.996 102.014 229.201 100.776C229.704 97.7393 226.328 94.5003 223.684 95.4828C222.501 95.9226 220.72 96.1556 219.726 96.0007C218.686 95.8386 218.103 96.2153 218.351 96.889C218.589 97.5324 219.273 97.9517 219.872 97.8208C220.471 97.6899 220.704 98.2524 220.39 99.0708C220.068 99.9081 220.376 100.559 221.092 100.559C221.793 100.559 222.073 100.852 221.715 101.21C221.357 101.568 221.844 102.501 222.798 103.284C223.752 104.067 223.924 104.393 223.179 104.01C222.25 103.531 222.363 104.133 223.538 105.927C224.481 107.365 225.722 108.251 226.297 107.896C226.905 107.52 227.044 107.732 226.628 108.404C226.231 109.046 226.496 109.59 227.224 109.629C227.944 109.668 227.721 110.02 226.729 110.411C225.039 111.078 225.072 111.34 227.247 114.591C228.523 116.498 229.474 119.184 229.361 120.559C229.248 121.934 229.419 123.734 229.741 124.559C230.063 125.384 230.389 126.959 230.465 128.059C230.743 132.088 233.175 137.588 234.363 136.876C235.007 136.49 234.915 136.936 234.16 137.867C231.722 140.873 234.612 139.66 237.435 136.492C239.74 133.904 239.97 133.163 238.905 131.742C237.747 130.199 237.786 130.189 239.372 131.629C240.913 133.028 240.947 133.496 239.68 135.937C238.899 137.444 237.871 138.73 237.396 138.796C236.344 138.942 234.033 141.176 234.033 142.046C234.033 142.393 234.595 142.339 235.283 141.926C236.132 141.416 236.093 141.717 235.16 142.867C233.604 144.785 234.996 145.195 236.833 143.359C237.766 142.425 238.033 142.439 238.033 143.418C238.033 144.11 238.483 144.399 239.033 144.059C240.66 143.053 240.172 144.201 238.341 145.686C236.905 146.851 236.775 146.85 237.48 145.679C238.057 144.722 237.886 144.449 236.922 144.787C236.158 145.055 235.594 146.009 235.67 146.906C235.745 147.803 235.408 148.291 234.92 147.989C234.432 147.688 234.033 147.869 234.033 148.393C234.033 150.198 236.982 150.472 238.054 148.768C238.947 147.348 239.019 147.456 238.481 149.41C237.87 151.629 238.023 151.721 241.183 151.043C243.025 150.647 244.814 150.16 245.158 149.959ZM233.905 132.809C232.661 131.223 232.697 131.187 234.283 132.431C235.245 133.186 236.033 133.974 236.033 134.181C236.033 135.004 235.212 134.474 233.905 132.809ZM234.957 130.809L232.533 128.059L235.283 130.483C237.853 132.749 238.491 133.559 237.707 133.559C237.528 133.559 236.29 132.321 234.957 130.809ZM238.905 128.809C237.636 127.19 237.683 127.169 239.533 128.526C240.633 129.333 241.72 130.12 241.949 130.276C242.179 130.431 241.896 130.559 241.322 130.559C240.748 130.559 239.66 129.771 238.905 128.809ZM231.033 119.559C231.033 119.009 231.509 118.559 232.092 118.559C232.674 118.559 232.873 119.009 232.533 119.559C232.193 120.109 231.716 120.559 231.474 120.559C231.231 120.559 231.033 120.109 231.033 119.559ZM231.366 116.103C231.366 115.302 231.748 114.883 232.216 115.172C232.683 115.461 232.806 116.116 232.49 116.628C231.681 117.936 231.366 117.789 231.366 116.103ZM232.545 113.439C230.56 111.443 230.56 111.44 232.545 112.168C234.516 112.892 234.517 112.88 232.589 110.685C230.928 108.795 230.893 108.568 232.35 109.127C233.692 109.642 233.913 109.385 233.385 107.92C233.016 106.896 232.898 106.286 233.123 106.564C233.349 106.841 234.883 108.64 236.533 110.56C239.45 113.956 239.457 113.984 236.759 111.608L233.985 109.166L234.396 111.612C234.622 112.958 235.341 113.935 235.994 113.784C236.647 113.633 236.896 113.97 236.548 114.534C235.662 115.968 234.833 115.742 232.545 113.439ZM227.033 113.15C227.033 112.959 227.708 112.243 228.533 111.559C229.397 110.841 230.033 110.744 230.033 111.329C230.033 111.888 229.358 112.604 228.533 112.92C227.708 113.237 227.033 113.34 227.033 113.15ZM225.766 101.435C226.444 100.751 227.251 100.444 227.559 100.752C227.867 101.06 227.312 101.619 226.326 101.994C224.901 102.537 224.786 102.422 225.766 101.435ZM224.586 98.6441C224.264 98.1232 224.426 97.4335 224.947 97.1115C225.468 96.7895 226.158 96.9524 226.48 97.4733C226.802 97.9943 226.639 98.684 226.118 99.0059C225.597 99.3279 224.908 99.1651 224.586 98.6441ZM32.0824 149.033C36.0991 146.956 35.9209 145.209 31.7828 146.097C27.62 146.99 27.0328 147.363 27.0328 149.118C27.0328 150.963 28.3955 150.94 32.0824 149.033ZM29.5975 143.664C29.2932 143.171 29.6421 142.539 30.3729 142.258C31.1037 141.978 31.763 140.114 31.8381 138.116C31.9132 136.118 32.7033 132.948 33.5938 131.071C34.4843 129.195 34.914 127.176 34.5485 126.584C34.1831 125.993 34.48 125.633 35.2084 125.784C35.9368 125.935 36.4762 125.307 36.4071 124.388C36.338 123.469 36.7879 122.905 37.4071 123.134C38.0262 123.363 39.4328 121.64 40.5328 119.305C41.6328 116.97 43.5453 114.239 44.7828 113.236C46.0203 112.234 47.0328 110.898 47.0328 110.268C47.0328 108.96 51.1989 105.175 55.335 102.726C57.3437 101.536 57.9949 100.499 57.6347 99.0623C57.1684 97.2028 57.2265 97.1846 58.4427 98.8087C59.1635 99.7712 60.2661 100.559 60.893 100.559C61.5199 100.559 62.0328 101.459 62.0328 102.559C62.0328 103.659 61.5828 104.559 61.0328 104.559C60.4828 104.559 60.0328 105.234 60.0328 106.059C60.0328 106.884 59.6413 107.559 59.1627 107.559C57.9928 107.559 55.6512 116.122 56.3344 117.902C56.6325 118.679 56.3717 119.82 55.7546 120.437C55.1197 121.072 55.0578 121.559 55.612 121.559C56.1506 121.559 57.2531 120.604 58.062 119.436C58.8709 118.269 60.124 116.697 60.8465 115.944C61.5691 115.19 61.8832 114.126 61.5446 113.578C61.1982 113.017 61.5634 112.825 62.3797 113.138C64.3908 113.91 65.4675 111.787 63.9764 109.991C63.3006 109.177 63.0369 108.221 63.3903 107.868C63.7436 107.515 64.0328 107.75 64.0328 108.392C64.0328 110.856 66.2201 109.233 75.935 99.5587C81.4581 94.0587 86.3777 89.5587 86.8674 89.5587C87.3571 89.5587 89.3455 88.297 91.286 86.7549C93.2265 85.2127 96.7759 83.3526 99.1735 82.6212C101.571 81.8898 105.847 80.4758 108.676 79.4789C113.65 77.7262 113.875 77.7267 115.474 79.4937C116.912 81.0831 116.94 81.5083 115.689 82.7593C114.628 83.8209 114.521 84.6797 115.281 86.0387C116.12 87.537 116.016 87.7663 114.723 87.2702C113.561 86.8243 113.301 87.0939 113.754 88.2737C114.166 89.3481 113.982 89.6454 113.203 89.1638C112.559 88.7661 112.033 88.9473 112.033 89.5664C112.033 90.1856 110.962 92.1247 109.653 93.8755C106.218 98.4712 102.853 106.543 104.339 106.622C104.996 106.657 104.52 107.092 103.283 107.59C101.756 108.204 100.997 109.388 100.921 111.277C100.859 112.807 100.64 115.521 100.433 117.309C100.135 119.884 100.418 120.55 101.795 120.517C103.854 120.467 111.883 115.962 115.388 112.89C116.749 111.697 118.813 110.212 119.975 109.589C121.138 108.967 121.856 108.082 121.572 107.621C121.287 107.161 121.659 106.846 122.398 106.922C123.136 106.997 128.749 102.334 134.869 96.5587C140.99 90.7837 148.034 84.7838 150.523 83.2254C153.012 81.6671 154.796 79.9848 154.488 79.4869C154.181 78.989 154.609 78.8425 155.44 79.1613C157.081 79.7913 164.033 77.8254 164.033 76.7312C164.033 76.02 165.852 75.8888 181.033 75.5053C190.038 75.2778 190.872 75.4377 197.033 78.5722C204.1 82.1676 212.334 87.4612 212.866 88.7505C213.299 89.7993 217.033 89.8067 217.033 88.7585C217.033 88.3185 216.695 87.5215 216.283 86.9874C215.87 86.4532 216.255 86.7825 217.138 87.719C218.468 89.1303 219.152 89.2195 221.138 88.2401C223.261 87.1928 225.539 86.9196 227.033 87.5331C228.918 88.3072 235.758 88.1657 236.783 87.3315C237.658 86.6184 238.033 86.6864 238.033 87.5585C238.033 88.5517 238.336 88.5517 239.533 87.5585C240.358 86.8738 241.033 86.745 241.033 87.2721C241.033 88.1825 243.439 88.5219 252.533 88.8946C254.733 88.9848 256.983 89.5581 257.533 90.1688C258.658 91.4184 262.033 92.7747 262.033 91.9775C262.033 88.7199 253.552 79.1455 251.398 79.9719C250.564 80.292 250.341 79.8796 250.743 78.7576C251.078 77.8231 250.996 77.3802 250.561 77.7733C250.126 78.1665 248.965 78.0576 247.982 77.5313C246.735 76.8637 246.042 76.9499 245.692 77.8165C245.36 78.6389 245.164 78.5396 245.112 77.5227C245.05 76.3131 243.731 75.9944 238.906 76.0227C232.035 76.0629 231.229 75.302 232.943 70.3875C233.763 68.0342 233.762 67.009 232.938 66.4999C232.257 66.0793 232.195 65.5762 232.779 65.2153C234.184 64.347 233.182 56.7138 231.019 51.8085C229.988 49.471 228.948 47.5585 228.706 47.5585C228.465 47.5585 228.231 49.246 228.186 51.3085C228.14 53.371 227.65 56.5851 227.097 58.4509C226.543 60.3167 226.372 62.2987 226.716 62.8554C227.06 63.4121 226.854 63.5665 226.259 63.1985C225.663 62.8305 224.889 63.436 224.537 64.544C224.185 65.652 223.59 66.596 223.215 66.6418C218.221 67.2515 218.06 67.1759 216.818 63.6398C216.126 61.6701 215.533 59.3835 215.5 58.5585C215.466 57.7335 214.946 57.1548 214.344 57.2725C213.741 57.3902 213.207 56.4902 213.156 55.2725C212.961 50.6242 212.58 48.5585 211.916 48.5585C211.538 48.5585 210.758 47.2098 210.183 45.5612C209.119 42.5083 205.53 37.3511 201.032 32.4132C199.657 30.9035 197.916 28.9301 197.163 28.0279C196.354 27.0583 194.966 26.6041 193.769 26.9171C192.319 27.2962 192.051 27.1399 192.824 26.3669C193.597 25.5938 193.567 24.9516 192.718 24.1062C190.047 21.4458 186.044 19.4303 184.826 20.1327C184.115 20.5432 183.867 20.5094 184.277 20.0574C185.098 19.1517 178.205 14.0523 177.336 14.922C177.038 15.2197 176.141 14.8097 175.342 14.0109C173.015 11.6837 171.532 12.338 173.627 14.7677C174.675 15.9827 175.982 17.5733 176.532 18.3024C177.082 19.0314 177.982 20.1748 178.532 20.8432C179.082 21.5116 179.577 22.621 179.632 23.3085C179.937 27.1118 180.109 27.629 180.91 27.1344C181.392 26.8362 181.159 28.4145 180.392 30.6418C179.624 32.869 179.196 35.015 179.441 35.4106C180.237 36.6982 175.571 36.1915 174.196 34.841C170.556 31.2657 166.001 28.4598 164.921 29.1273C164.164 29.5954 163.986 29.4431 164.437 28.713C165.099 27.641 163.715 27.1648 160.293 27.288C159.612 27.3126 159.301 26.9335 159.602 26.4456C160.163 25.5387 158.102 25.1149 154.532 25.4031C153.045 25.5231 152.88 25.3394 153.889 24.6865C155.628 23.5614 154.212 22.6801 150.171 22.3722C148.445 22.2407 147.032 21.7788 147.032 21.3458C147.032 20.9128 146.132 20.5585 145.032 20.5585C143.932 20.5585 143.032 20.1898 143.032 19.7393C143.032 18.99 133.873 16.0585 131.532 16.0585C130.982 16.0585 130.296 15.7452 130.007 15.3622C129.717 14.9793 127.917 14.4007 126.007 14.0764C124.096 13.752 121.857 13.294 121.032 13.0585C116.35 11.7217 103.436 10.4008 96.0323 10.5014C80.4031 10.7139 71.0623 11.9141 69.819 13.8695C69.2527 14.7601 69.0591 14.7359 69.0477 13.7733C69.0362 12.8073 68.5457 12.7486 67.0729 13.5368C65.9951 14.1136 64.7576 14.5261 64.3229 14.4536C63.2812 14.2797 60.8609 14.8222 57.2823 16.0314C56.0448 16.4496 55.0323 17.209 55.0323 17.719C55.0323 18.2289 54.4698 18.532 53.7823 18.3925C53.0948 18.253 51.5381 18.6894 50.3229 19.3622C49.1076 20.035 47.7576 20.4875 47.3229 20.3678C46.8881 20.248 44.7775 21.0738 42.6327 22.2028C38.2994 24.4838 38.9527 25.6975 44.6001 25.8576C46.4878 25.9111 48.0323 26.2407 48.0323 26.59C48.0323 27.6482 51.4358 27.3605 52.9743 26.1722C54.0737 25.323 54.2379 25.3554 53.6653 26.3085C53.1677 27.1367 53.5678 27.5585 54.8509 27.5585C55.916 27.5585 57.3647 28.254 58.0701 29.104C58.7756 29.954 59.8637 30.4534 60.4882 30.2138C61.1485 29.9604 61.716 30.9898 61.8443 32.6737C61.9883 34.5638 61.6252 35.4806 60.7986 35.3139C60.1022 35.1734 59.656 35.6544 59.8071 36.3828C59.9582 37.1112 59.6831 37.4607 59.1957 37.1594C57.5486 36.1415 39.7359 45.8825 35.2109 50.2756C34.4841 50.9812 33.3966 51.5585 32.7943 51.5585C32.1919 51.5585 30.5365 52.6613 29.1157 54.0092C14.4624 67.9099 14.7629 67.5585 17.5323 67.5585C18.3573 67.5585 19.0679 66.996 19.1113 66.3085C19.2843 66.2846 19.5852 66.3085 19.6946 66.3085C20.2843 66.683 22.0632 67.8619 23.7463 65.8085C24.5352 64.846 24.8485 64.6975 24.4425 65.4784C23.9096 66.5035 24.1491 66.7277 25.3037 66.2846C26.1834 65.947 27.084 66.2081 27.3051 66.8647C27.6144 67.7833 28.0485 67.7769 29.1879 66.837C30.3671 65.8642 31.1129 65.9266 32.8505 67.1437C34.0857 68.0088 35.0323 68.2134 35.0323 67.6152C35.0323 67.034 35.5374 66.5585 36.1548 66.5585C36.9633 66.5585 36.975 66.9227 36.1967 67.8605C35.6024 68.5766 35.3887 70.2641 35.7219 71.6105C36.0551 72.9569 36.0084 73.7682 35.6182 73.4133C35.228 73.0585 32.4615 75.196 29.4704 78.1633C26.4792 81.1307 23.582 83.5585 23.0322 83.5585C22.4823 83.5585 22.0324 84.0808 22.0324 84.7193C22.0324 85.3577 20.6259 87.1358 18.9068 88.6707C16.8807 90.4796 15.9972 92.0243 16.3953 93.0618C16.7331 93.9421 16.5915 94.404 16.0806 94.0882C14.9387 93.3825 10.9026 97.5394 11.6132 98.6893C11.8946 99.1446 11.5753 100.539 10.9036 101.788C8.10044 106.999 8.13581 115.647 10.9406 110.83C11.5076 109.855 11.9853 109.444 12.002 109.914C12.0187 110.385 13.3824 109.325 15.0324 107.558C16.6824 105.792 18.0324 104.64 18.0324 104.998C18.0324 105.356 19.1817 104.5 20.5863 103.096C21.9909 101.691 22.8675 100.101 22.5343 99.5616C22.2012 99.0225 22.5603 98.8238 23.3326 99.1202C24.1591 99.4373 25.4863 98.5072 26.5594 96.8587C29.3464 92.5771 31.2335 91.4534 33.0324 93.0043C33.8574 93.7156 35.2074 94.0845 36.0324 93.8243C36.8574 93.564 36.477 94.1283 35.1871 95.0783C33.425 96.3759 32.9467 97.521 33.2639 99.682C33.4961 101.264 33.314 102.558 32.8592 102.558C32.4045 102.558 32.0324 103.243 32.0324 104.08C32.0324 104.918 30.6875 108.569 29.0436 112.194C27.3998 115.819 26.3013 119.185 26.6026 119.672C26.9039 120.16 26.6739 120.558 26.0914 120.558C25.509 120.558 25.0324 121.485 25.0324 122.618C25.0324 123.999 25.444 124.429 26.2824 123.926C27.0026 123.493 26.8966 123.961 26.0324 125.029C24.8887 126.443 24.8293 126.984 25.7824 127.304C26.4699 127.536 27.0324 128.124 27.0324 128.61C27.0324 129.097 26.4162 129.259 25.6631 128.97C24.5856 128.557 24.3893 129.469 24.742 133.252C24.9884 135.895 25.2296 138.621 25.2779 139.308C25.3262 139.996 25.7104 140.558 26.1317 140.558C26.553 140.558 27.1833 141.458 27.5324 142.558C27.8816 143.658 28.6134 144.558 29.1588 144.558C29.7042 144.558 29.9018 144.156 29.5975 143.664ZM179.533 19.5587C179.193 19.0087 179.391 18.5587 179.974 18.5587C180.556 18.5587 181.033 19.0087 181.033 19.5587C181.033 20.1087 180.834 20.5587 180.592 20.5587C180.349 20.5587 179.873 20.1087 179.533 19.5587ZM238.378 119.016C238.052 118.167 237.571 117.687 237.309 117.949C237.047 118.211 237.129 118.906 237.492 119.492C238.478 121.088 239.054 120.778 238.378 119.016Z" fill="#7C8498"/>
</svg>
