<svg width="256" height="256" viewBox="0 0 256 256" fill="none" xmlns="http://www.w3.org/2000/svg">
<circle cx="128" cy="128" r="128" fill="#4F8CF5"/>
<path d="M117.007 223.919C111.239 222.94 104.896 220.686 99.7944 217.802C83.5072 208.596 74.8539 196.21 69.0475 173.793L67.1119 166.32L64.2742 165.596C54.2165 163.03 47.1854 155.541 44.9764 145.039C43.3448 137.282 46.4198 127.627 51.7382 123.807C53.5535 122.504 54.2295 121.65 53.9617 121C52.7031 117.945 52.4004 115.254 52.7095 109.866C52.8988 106.566 53.2352 103.108 53.4571 102.181L53.8605 100.495L50.9663 102.331C47.5672 104.486 44.4709 104.767 43.5281 103.005C41.2163 98.6858 45.4174 86.6844 51.9957 78.816C54.1127 76.2838 54.2385 75.966 53.1235 75.966C52.4332 75.966 50.9418 75.5788 49.8091 75.1055C46.0323 73.5275 46.5838 69.9833 51.435 64.6573C54.3179 61.4923 61.5868 55.6683 65.3839 53.4813C68.2754 51.8158 68.3184 51.7511 66.8839 51.2217C62.0642 49.4433 60.0036 48.0364 59.8152 46.3958C59.3165 42.0533 71.2772 35.7675 85.4017 32.9493C93.3184 31.3697 107.881 31.5309 116.272 33.291C124.381 34.9921 134.002 38.0898 138.978 40.6017L142.798 42.5303L139.018 38.4896C136.08 35.3487 135.28 34.1034 135.423 32.8971C135.858 29.2344 141.868 30.0303 152.407 35.1461C158.834 38.2657 160.156 39.191 164.721 43.7615C168.247 47.2928 170.435 50.0893 171.771 52.7726C172.836 54.9125 173.707 56.9405 173.707 57.2792C173.707 57.618 174.019 58.088 174.401 58.3238C174.908 58.6375 175.002 57.861 174.751 55.4287C174.252 50.5908 175.989 49.4827 180.095 52.0201C184.563 54.7817 187.717 62.1797 188.064 70.716C188.094 71.4509 188.602 71.7661 189.757 71.7665C192.355 71.7671 198.42 74.9525 200.641 77.4829C204.559 81.9449 206.721 88.9124 204.787 90.846C203.691 91.9421 201.245 91.7146 197.018 90.1237C193.428 88.7723 187.507 87.5077 187.507 88.0922C187.507 88.2366 188.44 90.508 189.581 93.1397C191.827 98.3238 194.693 108.728 194.702 111.732C194.705 112.759 194.875 114.822 195.08 116.317C195.441 118.95 195.529 119.048 197.896 119.427C201.279 119.968 205.719 122.511 208.449 125.473C215.716 133.356 215.152 147.619 207.176 157.67C204.822 160.637 199.048 164.527 195.653 165.433C191.728 166.481 190.507 167.085 190.507 167.977C190.507 170.256 185.239 184.952 182.609 190.008C179.089 196.778 173.014 205.051 168.69 208.966C161.58 215.403 151.503 220.751 142.207 223.02C135.863 224.569 123.444 225.012 117.007 223.919ZM136.207 219.081C139.177 218.596 143.092 217.761 144.907 217.225C149.836 215.768 157.322 211.816 161.596 208.415C166.151 204.791 174.059 195.964 176.028 192.306C179.641 185.594 181.485 181.544 182.691 177.666C185.104 169.912 185.506 167.927 186.275 159.966C188.245 139.585 188.525 138.247 191.891 133.125L194.349 129.384L195.722 130.674C196.476 131.383 197.81 132.039 198.684 132.132C201.296 132.411 201.907 132.85 201.907 134.447C201.907 135.872 201.719 135.966 198.876 135.966C196.01 135.966 195.801 136.074 195.011 137.963C194.552 139.061 193.638 143.449 192.979 147.713C191.189 159.301 191.004 161.033 191.528 161.339C191.792 161.492 193.32 161.229 194.924 160.754C197.179 160.086 198.816 158.914 202.147 155.578C207.235 150.484 208.807 146.776 208.807 139.866C208.807 132.313 204.537 126.159 198.119 124.461C195.516 123.772 195.013 123.814 193.02 124.882C191.778 125.548 190.282 127.053 189.608 128.315C188.545 130.305 188.146 130.563 186.133 130.564C184.882 130.565 182.764 130.007 181.425 129.324C180.086 128.641 178.866 128.207 178.713 128.36C178.56 128.513 178.176 130.49 177.859 132.752C175.864 147.02 171.831 153.179 163.316 154.964C154.715 156.766 140.615 155.389 136.62 152.357C132.157 148.969 129.564 143.843 127.155 133.648C125.893 128.303 124.143 126.76 119.794 127.159C116.977 127.417 116.28 128.071 115.844 130.866C113.962 142.948 113.581 144.575 111.646 148.823C108.802 155.062 108.286 157.138 108.964 159.596C109.761 162.48 113.815 164.177 119.818 164.137C124.931 164.104 127.999 162.884 129.183 160.414C129.697 159.34 130.442 158.766 131.32 158.766C134.628 158.766 135.101 162.387 132.157 165.181C128.603 168.554 126.612 169.219 120.007 169.244C114.596 169.264 113.664 169.098 110.513 167.55C108.243 166.436 106.384 164.965 105.204 163.35C103.544 161.079 103.412 160.554 103.67 157.224L103.951 153.582L100.879 154.433C99.1895 154.901 94.2565 155.426 89.917 155.599C81.2375 155.946 77.2864 155.346 73.057 153.041L70.507 151.65V154.86C70.507 160.939 74.1088 176.59 77.3939 184.786C82.9142 198.558 93.4253 210.106 105.007 215.124C109.162 216.924 112.574 218.107 114.637 218.462C124.569 220.174 128.764 220.294 136.207 219.081ZM127.627 213.846C126.661 212.88 126.72 212.1 127.884 210.438C129.072 208.742 129.884 209.62 129.898 212.616C129.907 214.65 128.95 215.169 127.627 213.846ZM138.457 214.141C137.971 213.963 137.707 212.599 137.707 210.266C137.707 205.725 138.963 205.742 139.746 210.293C140.293 213.47 139.892 214.667 138.457 214.141ZM117.107 213.566C116.297 212.756 116.741 209.858 117.887 208.482L119.067 207.066L119.087 210.516C119.101 213.001 118.883 213.966 118.307 213.966C117.867 213.966 117.327 213.786 117.107 213.566ZM107.946 210.723C107.29 209.014 107.98 205.881 109.057 205.677C109.945 205.509 110.107 205.947 110.107 208.522C110.107 210.855 109.893 211.566 109.188 211.566C108.683 211.566 108.124 211.187 107.946 210.723ZM147.307 208.639C147.307 206.213 149.059 203.654 149.153 205.943C149.179 206.56 149.246 207.944 149.303 209.016C149.383 210.513 149.163 210.966 148.357 210.966C147.538 210.966 147.307 210.455 147.307 208.639ZM98.107 205.266C97.1326 204.092 97.8464 200.166 99.0342 200.166C99.6669 200.166 99.907 200.899 99.907 202.831C99.907 205.75 99.2482 206.641 98.107 205.266ZM156.987 202.716C156.963 199.458 157.351 197.766 158.12 197.766C158.907 197.766 159.484 201.593 159.017 203.719C158.363 206.698 157.01 206.029 156.987 202.716ZM88.907 197.966C88.1496 197.209 88.5086 193.712 89.4215 192.954C89.9245 192.537 90.4244 192.301 90.5324 192.43C90.919 192.894 92.107 196.761 92.107 197.556C92.107 198.381 89.6384 198.697 88.907 197.966ZM117.307 196.991C115.629 196.54 114.607 195.925 114.607 195.366C114.607 194.021 131.608 193.81 132.122 195.148C132.311 195.642 132.216 196.297 131.909 196.604C130.999 197.514 120.313 197.797 117.307 196.991ZM165.483 194.68C165.83 192.087 167.07 190.649 167.813 191.976C168.045 192.391 168.137 193.257 168.017 193.899C167.897 194.541 167.778 195.538 167.753 196.116C167.724 196.773 167.229 197.166 166.428 197.166C165.275 197.166 165.182 196.921 165.483 194.68ZM82.5801 188.599C81.8126 187.832 81.6614 183.589 82.3857 183.141C83.3283 182.558 84.1669 183.707 84.5729 186.137C85.0091 188.748 83.9891 190.008 82.5801 188.599ZM117.887 186.746C117.727 186.586 116.518 186.32 115.201 186.156C112.467 185.815 110.338 185.296 108.607 184.547C107.947 184.261 106.867 183.944 106.207 183.841C104.951 183.645 104.192 181.231 105.106 180.339C105.382 180.071 106.957 180.202 108.607 180.632C110.257 181.061 112.998 181.581 114.698 181.786C116.398 181.991 118.183 182.31 118.664 182.494C119.146 182.679 122.655 182.559 126.463 182.229C131.784 181.767 134.521 181.19 138.289 179.737C140.985 178.697 143.332 177.479 143.504 177.029C143.677 176.58 144.352 176.042 145.006 175.835C145.728 175.605 146.063 175.117 145.86 174.589C145.387 173.355 147.753 172.631 150.004 173.322C151.45 173.766 152.069 174.468 152.796 176.489C153.638 178.832 153.639 179.177 152.802 180.014C151.966 180.85 151.779 180.796 150.902 179.458L149.929 177.975L148.086 179.32C147.072 180.06 144.66 181.476 142.725 182.466C140.79 183.456 139.072 184.433 138.907 184.637C138.122 185.607 130.801 186.786 124.823 186.905C121.169 186.978 118.048 186.907 117.887 186.746ZM173.226 183.263C173.331 181.454 173.72 180.057 174.157 179.913C174.988 179.639 175.137 181.465 174.532 184.491C173.93 187.499 173.028 186.651 173.226 183.263ZM95.5375 182.396C95.0553 181.914 95.704 178.485 96.4594 177.523C97.3153 176.432 98.107 177.194 98.107 179.108C98.107 180.757 96.2608 183.12 95.5375 182.396ZM77.1506 175.785C76.06 174.399 75.2745 169.933 76.3018 170.961C76.519 171.178 77.0401 171.07 77.46 170.722C78.4898 169.867 79.277 171.499 79.4345 174.816C79.5739 177.75 78.9161 178.03 77.1506 175.785ZM177.879 172.764C178.411 168.218 180.275 169.105 180.299 173.916C180.305 175.239 180.034 175.566 178.929 175.566C177.643 175.566 177.573 175.381 177.879 172.764ZM72.3657 163.476C72.0034 162.437 71.707 160.807 71.707 159.853C71.707 158.176 71.7439 158.154 72.8326 159.193C73.4516 159.783 74.1266 160.873 74.3326 161.616C74.5385 162.358 74.8602 163.506 75.0474 164.166C75.3053 165.075 75.1013 165.366 74.2061 165.366C73.4201 165.366 72.8038 164.733 72.3657 163.476ZM181.416 161.317C181.756 155.722 183.907 154.254 183.907 159.617C183.907 163.538 183.498 164.766 182.193 164.767C181.368 164.767 181.241 164.203 181.416 161.317ZM66.307 160.948C66.307 160.828 66.0566 159.409 65.7505 157.795C65.4444 156.181 65.0385 152.432 64.8486 149.463C64.1202 138.075 63.3015 135.996 59.5377 135.975C57.663 135.965 56.3813 133.842 57.4496 132.516C58.1716 131.62 59.707 131.518 59.707 132.366C59.707 132.696 60.0059 132.966 60.3712 132.966C60.7561 132.966 60.8673 132.524 60.6357 131.916C60.3151 131.074 60.3857 131.015 60.9915 131.616C61.407 132.028 62.503 132.366 63.427 132.366C64.7139 132.366 65.107 132.082 65.107 131.151C65.107 130.44 64.5419 129.721 63.7434 129.418C62.9935 129.133 61.5373 128.038 60.5074 126.984C58.7008 125.136 58.5747 125.101 56.921 125.978C51.8865 128.649 49.3068 133.456 49.3418 140.101C49.378 146.986 52.3318 153.299 57.5003 157.54C59.516 159.194 66.307 161.822 66.307 160.948ZM137.146 134.969C137.65 132.503 138.088 131.91 140.218 130.808C142.742 129.504 152.545 126.657 158.707 125.439C165.797 124.038 165.846 124.02 164.449 123.235C163.155 122.509 144.753 123.038 140.124 123.934C136.113 124.711 134.707 126.661 134.707 131.45C134.707 133.55 134.875 135.706 135.081 136.242C135.638 137.694 136.726 137.023 137.146 134.969ZM74.707 134.232C74.707 133.279 75.1795 131.922 75.757 131.217C77.0801 129.602 83.8262 127.311 92.0532 125.682C95.5478 124.99 98.6635 124.186 98.977 123.895C99.7038 123.22 90.6876 123.241 82.9582 123.931C73.92 124.739 71.1871 127.004 72.0123 133.004C72.3383 135.375 72.6479 135.966 73.5633 135.966C74.4244 135.966 74.707 135.538 74.707 134.232ZM126.619 121.547C127.001 120.929 132.646 117.901 133.212 118.011C133.384 118.044 135.4 117.755 137.693 117.368C144.416 116.234 144.689 116.217 156.666 116.164C167.006 116.119 174.244 116.689 177.064 117.771C177.937 118.106 178.022 117.907 177.645 116.415C177.402 115.453 176.845 112.636 176.408 110.155C174.232 97.8189 172.262 92.9994 167.446 88.2252C162.452 83.2752 158.165 81.2404 151.975 80.882C142.513 80.3343 136.052 82.9942 127.919 90.7839C125.002 93.5783 116.945 100.391 112.198 104.077C109.847 105.903 105.681 107.82 103.38 108.135C101.08 108.451 100.445 108.304 99.348 107.207C98.2481 106.107 98.065 105.305 98.1704 102.049C98.2391 99.9277 98.7929 96.7794 99.4011 95.0523C100.009 93.3251 100.507 91.4292 100.507 90.839C100.507 90.2488 100.777 89.766 101.107 89.766C101.437 89.766 101.707 89.394 101.707 88.9394C101.707 88.4849 102.112 87.7768 102.607 87.366C103.102 86.9552 103.503 86.1796 103.498 85.6425C103.49 84.7928 103.413 84.7829 102.907 85.566C102.587 86.061 102.321 86.266 102.316 86.0215C102.311 85.7771 100.89 86.4333 99.157 87.4798C95.0856 89.9391 87.0545 97.7338 82.1449 103.991C77.9374 109.354 76.3167 110.766 74.3698 110.766C73.1172 110.766 71.707 108.686 71.707 106.838C71.707 106.358 71.4762 105.966 71.194 105.966C70.9119 105.966 70.4994 107.788 70.2773 110.016C70.0552 112.243 69.7095 114.984 69.509 116.106L69.1445 118.145L71.7758 117.722C82.1871 116.049 90.1764 115.789 101.051 116.769C108.289 117.421 112.383 118.618 114.28 120.637C115.494 121.929 116.142 122.073 120.935 122.11C123.9 122.133 126.41 121.885 126.619 121.547ZM189.982 120.606C190.188 120.486 190.357 119.693 190.357 118.843V117.298L189.061 118.516C187.814 119.686 187.764 119.689 187.764 118.594C187.764 117.967 187.988 117.593 188.262 117.762C188.536 117.931 189.137 117.756 189.598 117.374C190.376 116.728 190.349 116.098 189.442 113.766C188.835 112.205 188.849 110.783 189.468 111.165C189.795 111.367 189.926 111.158 189.76 110.7C189.593 110.241 189.142 109.937 188.756 110.025C188.249 110.139 188.225 109.867 188.668 109.039C189.14 108.157 188.999 107.536 188.053 106.333C187.001 104.996 186.974 104.829 187.864 105.171C188.544 105.432 188.762 105.34 188.494 104.906C188.268 104.541 187.567 104.281 186.937 104.329C186.306 104.376 185.889 104.574 186.009 104.769C186.129 104.964 185.987 105.513 185.692 105.99C185.236 106.728 185.043 106.733 184.382 106.023C183.743 105.336 183.757 105.276 184.459 105.676C185.084 106.033 185.213 105.907 184.943 105.203C184.74 104.675 184.897 104.125 185.291 103.98C185.838 103.778 185.83 103.528 185.257 102.921C184.16 101.758 184.342 100.628 185.611 100.724C186.389 100.782 186.671 101.215 186.564 102.186C186.417 103.527 186.91 103.963 187.691 103.182C187.902 102.971 187.883 102.499 187.65 102.132C187.226 101.467 187.123 101.129 186.982 99.9306C186.941 99.5811 186.57 99.4857 186.157 99.7186C185.57 100.05 185.564 99.9724 186.129 99.3621C186.943 98.4827 186.224 96.6287 184.559 95.3145C183.729 94.6597 183.761 94.6172 184.807 94.9841C185.832 95.3436 185.766 95.1179 184.357 93.4395C183.45 92.3585 182.707 91.1315 182.707 90.713C182.707 90.2944 182.167 89.4633 181.507 88.866C180.093 87.5864 179.878 88.0516 181.25 89.4231C181.959 90.1325 181.996 90.3707 181.4 90.3851C180.902 90.3971 181.041 90.7324 181.772 91.2851C182.412 91.7696 182.698 92.166 182.407 92.166C182.116 92.166 182.402 92.5859 183.042 93.0991C184.161 93.9951 184.153 94.0062 182.857 93.378C182.115 93.0182 181.507 92.4474 181.507 92.1095C181.507 91.7716 181.215 91.6756 180.858 91.8962C180.457 92.1442 180.285 91.8391 180.408 91.0963C180.71 89.2743 178.684 87.3309 177.098 87.9204C176.388 88.1843 175.319 88.3241 174.723 88.2312C174.099 88.1339 173.749 88.3599 173.898 88.7641C174.04 89.1502 174.451 89.4018 174.81 89.3232C175.17 89.2447 175.31 89.5822 175.121 90.0732C174.928 90.5756 175.113 90.966 175.543 90.966C175.963 90.966 176.131 91.1418 175.916 91.3567C175.701 91.5716 175.994 92.1316 176.566 92.6012C177.139 93.0708 177.241 93.2667 176.795 93.0366C176.238 92.7496 176.305 93.1107 177.01 94.187C177.576 95.0498 178.32 95.5813 178.665 95.3682C179.03 95.1425 179.114 95.27 178.864 95.6733C178.626 96.0585 178.785 96.3847 179.222 96.4082C179.654 96.4314 179.52 96.6425 178.925 96.8773C177.911 97.2774 177.93 97.4348 179.235 99.3851C180.001 100.53 180.572 102.141 180.504 102.966C180.436 103.791 180.539 104.871 180.732 105.366C180.925 105.861 181.121 106.806 181.166 107.466C181.333 109.884 182.792 113.184 183.505 112.756C183.891 112.525 183.837 112.792 183.384 113.351C181.92 115.155 183.655 114.427 185.348 112.526C186.731 110.973 186.869 110.528 186.23 109.676C185.536 108.75 185.559 108.744 186.51 109.608C187.435 110.448 187.456 110.728 186.695 112.193C186.226 113.097 185.61 113.869 185.325 113.908C184.694 113.996 183.307 115.336 183.307 115.859C183.307 116.067 183.645 116.034 184.057 115.786C184.567 115.48 184.543 115.661 183.984 116.351C183.05 117.502 183.885 117.748 184.987 116.646C185.547 116.086 185.707 116.094 185.707 116.681C185.707 117.097 185.977 117.27 186.307 117.066C187.284 116.462 186.991 117.151 185.892 118.043C185.03 118.741 184.952 118.741 185.375 118.038C185.721 117.464 185.619 117.3 185.041 117.503C184.582 117.664 184.244 118.236 184.289 118.774C184.334 119.313 184.132 119.605 183.839 119.424C183.547 119.243 183.307 119.352 183.307 119.667C183.307 120.749 185.077 120.914 185.72 119.891C186.255 119.039 186.299 119.105 185.976 120.277C185.61 121.608 185.701 121.663 187.597 121.256C188.703 121.019 189.776 120.727 189.982 120.606ZM183.23 110.316C182.484 109.364 182.505 109.343 183.457 110.089C184.035 110.542 184.507 111.015 184.507 111.139C184.507 111.633 184.014 111.315 183.23 110.316ZM183.862 109.116L182.407 107.466L184.057 108.921C185.599 110.28 185.982 110.766 185.512 110.766C185.404 110.766 184.662 110.023 183.862 109.116ZM186.23 107.916C185.469 106.945 185.497 106.932 186.607 107.746C187.267 108.23 187.92 108.703 188.057 108.796C188.195 108.89 188.025 108.966 187.68 108.966C187.336 108.966 186.683 108.493 186.23 107.916ZM181.507 102.366C181.507 102.036 181.793 101.766 182.142 101.766C182.492 101.766 182.611 102.036 182.407 102.366C182.203 102.696 181.917 102.966 181.772 102.966C181.626 102.966 181.507 102.696 181.507 102.366ZM181.707 100.292C181.707 99.8119 181.936 99.5606 182.217 99.7338C182.497 99.9071 182.571 100.3 182.381 100.607C181.896 101.392 181.707 101.304 181.707 100.292ZM182.414 98.6943C181.224 97.4963 181.224 97.4948 182.414 97.9317C183.597 98.3658 183.597 98.3585 182.441 97.0419C181.444 95.9077 181.423 95.7715 182.297 96.107C183.103 96.416 183.235 96.2617 182.918 95.3828C182.697 94.7685 182.626 94.4023 182.761 94.569C182.896 94.7356 183.817 95.8146 184.807 96.9668C186.558 99.0041 186.561 99.0213 184.943 97.5958L183.279 96.1301L183.525 97.598C183.66 98.4054 184.092 98.9918 184.484 98.9011C184.876 98.8104 185.025 99.0129 184.816 99.3511C184.284 100.212 183.787 100.076 182.414 98.6943ZM179.107 98.5206C179.107 98.4064 179.512 97.9768 180.007 97.566C180.526 97.1354 180.907 97.0771 180.907 97.4283C180.907 97.7634 180.502 98.193 180.007 98.383C179.512 98.5729 179.107 98.6349 179.107 98.5206ZM178.347 91.4915C178.754 91.0815 179.238 90.8971 179.423 91.0819C179.608 91.2666 179.275 91.6021 178.683 91.8274C177.828 92.153 177.759 92.0841 178.347 91.4915ZM177.639 89.8172C177.446 89.5046 177.543 89.0908 177.856 88.8977C178.168 88.7045 178.582 88.8022 178.775 89.1147C178.969 89.4273 178.871 89.8411 178.558 90.0343C178.246 90.2275 177.832 90.1298 177.639 89.8172ZM62.1368 120.051C64.5468 118.804 64.4399 117.756 61.957 118.289C59.4593 118.825 59.107 119.049 59.107 120.101C59.107 121.208 59.9246 121.195 62.1368 120.051ZM60.6459 116.829C60.4633 116.533 60.6726 116.154 61.1111 115.986C61.5496 115.818 61.9452 114.699 61.9902 113.5C62.0353 112.302 62.5093 110.4 63.0436 109.274C63.578 108.148 63.8357 106.936 63.6165 106.581C63.3972 106.227 63.5754 106.01 64.0124 106.101C64.4494 106.192 64.7731 105.815 64.7316 105.263C64.6901 104.712 64.9601 104.373 65.3316 104.511C65.7031 104.649 66.547 103.615 67.207 102.214C67.867 100.812 69.0145 99.1739 69.757 98.5724C70.4995 97.971 71.107 97.1696 71.107 96.7915C71.107 96.0068 73.6067 93.7358 76.0883 92.266C77.2936 91.5522 77.6843 90.9299 77.4682 90.0681C77.1884 88.9524 77.2233 88.9415 77.953 89.916C78.3855 90.4935 79.047 90.966 79.4232 90.966C79.7993 90.966 80.107 91.506 80.107 92.166C80.107 92.826 79.837 93.366 79.507 93.366C79.177 93.366 78.907 93.771 78.907 94.266C78.907 94.761 78.6721 95.166 78.385 95.166C77.683 95.166 76.2781 100.304 76.688 101.372C76.8669 101.838 76.7103 102.523 76.3401 102.893C75.9592 103.274 75.922 103.566 76.2546 103.566C76.5777 103.566 77.2392 102.993 77.7246 102.292C78.2099 101.592 78.9617 100.649 79.3953 100.197C79.8288 99.745 80.0173 99.1062 79.8141 98.7775C79.6063 98.4412 79.8254 98.3258 80.3152 98.5138C81.5218 98.9768 82.1679 97.7032 81.2732 96.6252C80.8677 96.1367 80.7095 95.5635 80.9215 95.3515C81.1335 95.1395 81.307 95.281 81.307 95.666C81.307 97.1445 82.6194 96.1705 88.4484 90.366C91.7622 87.066 94.714 84.366 95.0078 84.366C95.3016 84.366 96.4946 83.6089 97.6589 82.6837C98.8232 81.7584 100.953 80.6423 102.391 80.2035C103.83 79.7646 106.396 78.9162 108.093 78.3181C111.078 77.2664 111.212 77.2667 112.172 78.3269C113.035 79.2806 113.052 79.5357 112.301 80.2863C111.664 80.9233 111.6 81.4386 112.056 82.2539C112.559 83.1529 112.497 83.2905 111.721 82.9929C111.024 82.7253 110.868 82.8871 111.14 83.595C111.387 84.2396 111.277 84.418 110.809 84.129C110.423 83.8904 110.107 83.9991 110.107 84.3706C110.107 84.7421 109.465 85.9055 108.679 86.956C106.618 89.7135 104.599 94.5567 105.491 94.604C105.885 94.6249 105.6 94.8862 104.857 95.1847C103.941 95.5529 103.485 96.2638 103.44 97.3967C103.403 98.3148 103.271 99.9435 103.147 101.016C102.968 102.561 103.138 102.961 103.964 102.941C105.2 102.911 110.017 100.208 112.12 98.3645C112.936 97.6487 114.175 96.7577 114.873 96.3844C115.57 96.0112 116.001 95.4798 115.83 95.2036C115.66 94.9274 115.883 94.7385 116.326 94.7837C116.769 94.829 120.137 92.031 123.809 88.566C127.481 85.101 131.708 81.501 133.201 80.566C134.694 79.631 135.765 78.6216 135.58 78.3229C135.396 78.0241 135.653 77.9362 136.151 78.1275C137.136 78.5055 141.307 77.326 141.307 76.6695C141.307 76.2427 142.398 76.164 151.507 75.9339C156.91 75.7974 157.41 75.8933 161.107 77.7741C165.347 79.9313 170.288 83.1075 170.607 83.8811C170.867 84.5103 173.107 84.5147 173.107 83.8859C173.107 83.6219 172.905 83.1436 172.657 82.8232C172.41 82.5027 172.64 82.7002 173.17 83.2621C173.968 84.1089 174.379 84.1624 175.57 83.5748C176.844 82.9464 178.211 82.7825 179.107 83.1506C180.238 83.615 184.342 83.5302 184.957 83.0296C185.482 82.6018 185.707 82.6426 185.707 83.1658C185.707 83.7618 185.889 83.7618 186.607 83.1658C187.102 82.755 187.507 82.6777 187.507 82.994C187.507 83.5402 188.95 83.7439 194.407 83.9675C195.727 84.0216 197.077 84.3656 197.407 84.732C198.082 85.4818 200.107 86.2956 200.107 85.8172C200.107 83.8627 195.018 78.118 193.726 78.6139C193.226 78.8059 193.092 78.5585 193.333 77.8853C193.534 77.3246 193.485 77.0589 193.224 77.2947C192.963 77.5306 192.267 77.4653 191.677 77.1495C190.928 76.749 190.513 76.8007 190.303 77.3206C190.103 77.8141 189.986 77.7545 189.954 77.1443C189.917 76.4186 189.126 76.2274 186.231 76.2443C182.108 76.2685 181.625 75.812 182.653 72.8632C183.145 71.4513 183.144 70.8362 182.65 70.5307C182.242 70.2783 182.204 69.9765 182.555 69.7599C183.398 69.2389 182.796 64.659 181.499 61.7158C180.88 60.3133 180.256 59.1658 180.111 59.1658C179.967 59.1658 179.826 60.1783 179.799 61.4158C179.771 62.6533 179.477 64.5818 179.145 65.7013C178.813 66.8208 178.71 68.01 178.917 68.344C179.123 68.678 179 68.7706 178.643 68.5498C178.285 68.3291 177.821 68.6923 177.61 69.3571C177.399 70.0219 177.042 70.5883 176.816 70.6158C173.82 70.9816 173.723 70.9363 172.978 68.8146C172.563 67.6328 172.207 66.2608 172.187 65.7658C172.167 65.2708 171.855 64.9236 171.494 64.9942C171.132 65.0649 170.811 64.5249 170.781 63.7942C170.664 61.0053 170.435 59.7658 170.037 59.7658C169.81 59.7658 169.342 58.9566 168.997 57.9675C168.359 56.1357 166.205 53.0414 163.507 50.0787C162.682 49.1728 161.637 47.9888 161.185 47.4475C160.7 46.8657 159.867 46.5932 159.149 46.781C158.279 47.0085 158.118 46.9147 158.582 46.4509C159.046 45.987 159.028 45.6017 158.518 45.0945C156.915 43.4982 154.514 42.2889 153.783 42.7103C153.356 42.9567 153.208 42.9364 153.454 42.6652C153.946 42.1218 149.81 39.0621 149.289 39.5839C149.11 39.7625 148.572 39.5165 148.092 39.0373C146.696 37.641 145.807 38.0336 147.064 39.4913C147.692 40.2204 148.477 41.1747 148.807 41.6121C149.137 42.0496 149.677 42.7356 150.007 43.1366C150.337 43.5377 150.634 44.2033 150.667 44.6158C150.849 46.8978 150.953 47.2081 151.433 46.9114C151.723 46.7324 151.583 47.6794 151.122 49.0158C150.662 50.3522 150.405 51.6397 150.552 51.8771C151.029 52.6497 148.23 52.3456 147.405 51.5353C145.221 49.3901 142.488 47.7066 141.84 48.1071C141.385 48.388 141.279 48.2966 141.549 47.8585C141.947 47.2154 141.116 46.9296 139.063 47.0036C138.654 47.0183 138.468 46.7908 138.649 46.4981C138.985 45.9539 137.748 45.6997 135.607 45.8726C134.715 45.9446 134.616 45.8344 135.221 45.4426C136.264 44.7676 135.414 44.2388 132.99 44.0541C131.954 43.9751 131.107 43.698 131.107 43.4382C131.107 43.1784 130.567 42.9658 129.907 42.9658C129.247 42.9658 128.707 42.7446 128.707 42.4743C128.707 42.0247 123.211 40.2658 121.807 40.2658C121.477 40.2658 121.065 40.0778 120.891 39.8481C120.718 39.6183 119.638 39.2711 118.491 39.0766C117.345 38.882 116.002 38.6071 115.507 38.4658C112.697 37.6637 104.949 36.8712 100.507 36.9316C91.1292 37.0591 85.5247 37.7792 84.7787 38.9524C84.439 39.4868 84.3228 39.4723 84.316 38.8947C84.3091 38.3151 84.0148 38.2799 83.1311 38.7528C82.4844 39.0989 81.7419 39.3464 81.4811 39.3029C80.8561 39.1986 79.4039 39.524 77.2568 40.2496C76.5143 40.5005 75.9068 40.9561 75.9068 41.2621C75.9068 41.5681 75.5693 41.7499 75.1568 41.6662C74.7443 41.5825 73.8102 41.8444 73.0811 42.248C72.3519 42.6517 71.5419 42.9233 71.2811 42.8514C71.0202 42.7796 69.7539 43.275 68.467 43.9524C65.867 45.321 66.259 46.0492 69.6474 46.1453C70.7801 46.1774 71.7068 46.3751 71.7068 46.5847C71.7068 47.2197 73.7488 47.047 74.6719 46.334C75.3316 45.8246 75.4301 45.844 75.0865 46.4158C74.788 46.9128 75.028 47.1658 75.7979 47.1658C76.437 47.1658 77.3062 47.5831 77.7294 48.0931C78.1527 48.6032 78.8056 48.9028 79.1803 48.759C79.5765 48.607 79.917 49.2246 79.9939 50.235C80.0803 51.369 79.8625 51.9191 79.3665 51.8191C78.9487 51.7348 78.681 52.0234 78.7716 52.4604C78.8623 52.8975 78.6972 53.1071 78.4048 52.9264C77.4165 52.3156 66.7289 58.1602 64.0139 60.7961C63.5778 61.2194 62.9253 61.5658 62.5639 61.5658C62.2025 61.5658 61.2093 62.2275 60.3568 63.0362C51.5648 71.3767 51.7451 71.1658 53.4068 71.1658C53.9018 71.1658 54.3281 70.8283 54.3541 70.4158C54.458 70.4015 54.6385 70.4158 54.7041 70.4158C55.058 70.6405 56.1252 71.3479 57.1351 70.1158C57.6085 69.5383 57.7964 69.4492 57.5528 69.9178C57.2331 70.5328 57.3768 70.6673 58.0696 70.4015C58.5974 70.199 59.1378 70.3556 59.2704 70.7495C59.456 71.3007 59.7164 71.2969 60.4001 70.7329C61.1076 70.1492 61.5551 70.1867 62.5977 70.9169C63.3387 71.436 63.9068 71.5588 63.9068 71.1999C63.9068 70.8511 64.2098 70.5658 64.5802 70.5658C65.0653 70.5658 65.0724 70.7843 64.6054 71.3471C64.2488 71.7767 64.1206 72.7892 64.3205 73.5971C64.5204 74.4049 64.4924 74.8916 64.2583 74.6787C64.0242 74.4658 62.3642 75.7483 60.5696 77.5287C58.7749 79.3091 57.0366 80.7658 56.7067 80.7658C56.3767 80.7658 56.1068 81.0792 56.1068 81.4623C56.1068 81.8454 55.2629 82.9122 54.2314 83.8331C53.0157 84.9185 52.4857 85.8453 52.7245 86.4678C52.9272 86.996 52.8422 87.2731 52.5357 87.0837C51.8506 86.6603 49.4289 89.1544 49.8553 89.8443C50.0241 90.1175 49.8325 90.9541 49.4295 91.7034C47.7476 94.8303 47.7688 100.019 49.4517 97.1284C49.7919 96.544 50.0785 96.2969 50.0886 96.5793C50.0986 96.8617 50.9168 96.2256 51.9068 95.1658C52.8968 94.106 53.7068 93.4147 53.7068 93.6297C53.7068 93.8445 54.3963 93.3308 55.2391 92.4881C56.0819 91.6453 56.6079 90.6911 56.408 90.3677C56.208 90.0442 56.4235 89.925 56.8869 90.1028C57.3828 90.2931 58.1791 89.7351 58.823 88.746C60.4952 86.177 61.6275 85.5028 62.7068 86.4333C63.2018 86.8601 64.0118 87.0815 64.5068 86.9253C65.0018 86.7691 64.7736 87.1077 63.9996 87.6777C62.9424 88.4563 62.6554 89.1433 62.8457 90.4399C62.985 91.3892 62.8757 92.1658 62.6029 92.1658C62.33 92.1658 62.1068 92.5768 62.1068 93.079C62.1068 93.5812 61.2998 95.7719 60.3135 97.9472C59.3272 100.122 58.6682 102.141 58.8489 102.434C59.0297 102.727 58.8917 102.966 58.5422 102.966C58.1927 102.966 57.9068 103.522 57.9068 104.201C57.9068 105.03 58.1537 105.288 58.6568 104.986C59.0889 104.726 59.0253 105.007 58.5068 105.648C57.8206 106.497 57.7849 106.821 58.3568 107.013C58.7693 107.152 59.1068 107.505 59.1068 107.797C59.1068 108.089 58.7371 108.186 58.2852 108.013C57.6387 107.765 57.5209 108.312 57.7325 110.582C57.8804 112.168 58.0251 113.803 58.0541 114.216C58.0831 114.628 58.3136 114.966 58.5664 114.966C58.8191 114.966 59.1973 115.506 59.4068 116.166C59.6163 116.826 60.0554 117.366 60.3826 117.366C60.7099 117.366 60.8285 117.124 60.6459 116.829ZM150.607 42.366C150.403 42.036 150.522 41.766 150.872 41.766C151.221 41.766 151.507 42.036 151.507 42.366C151.507 42.696 151.388 42.966 151.242 42.966C151.097 42.966 150.811 42.696 150.607 42.366ZM185.914 102.04C185.719 101.531 185.43 101.243 185.273 101.4C185.116 101.557 185.165 101.974 185.382 102.326C185.974 103.283 186.32 103.097 185.914 102.04Z" fill="white"/>
</svg>
